<svg xmlns="http://www.w3.org/2000/svg" viewBox="0 -0.5 10 10" shape-rendering="crispEdges">
<metadata>Made with Pixels to Svg https://codepen.io/shshaw/pen/XbxvNj</metadata>
<path stroke="#501000" d="M3 0h4M2 1h1M7 1h1M1 2h1M8 2h1M0 3h1M9 3h1" />
<path stroke="#e06848" d="M3 1h4M2 2h1M4 2h1M7 2h1M1 3h1M3 3h2M8 3h1M1 4h1M8 4h1" />
<path stroke="#f8f8f8" d="M3 2h1M1 6h1M2 7h2M6 7h2M4 8h2" />
<path stroke="#903828" d="M5 2h2M2 3h1M5 3h3M2 4h2M6 4h2M2 5h1M7 5h1" />
<path stroke="#000000" d="M0 4h1M4 4h2M9 4h1M1 5h1M3 5h1M6 5h1M8 5h1M2 6h2M6 6h2M4 7h2" />
<path stroke="#484858" d="M0 5h1M9 5h1M0 6h1M9 6h1M1 7h1M8 7h1M2 8h1M7 8h1M3 9h4" />
<path stroke="#c0c0d0" d="M4 5h2M4 6h2M8 6h1M3 8h1M6 8h1" />
</svg>